<svg xmlns="http://www.w3.org/2000/svg" width="15" height="27"><defs><filter id="Filter_0"><feFlood flood-color="#000" flood-opacity="1" result="floodOut"/><feComposite operator="atop" in="floodOut" in2="SourceGraphic" result="compOut"/><feBlend in="compOut" in2="SourceGraphic"/></filter></defs><path fill-rule="evenodd" fill="#55535a" d="M14.426 14.56c-.018.017-.042.022-.06.04L2.652 26.42c-.574.58-1.504.58-2.078 0-.574-.578-.574-1.517 0-2.096L11.3 13.5.573 2.676C0 2.096 0 1.158.574.58 1.148 0 2.078 0 2.652.58L14.365 12.4c.02.017.043.023.06.04.29.293.432.677.43 1.06.002.383-.14.767-.43 1.06z" filter="url(#Filter_0)"/></svg>